<svg 
 xmlns="http://www.w3.org/2000/svg"
 xmlns:xlink="http://www.w3.org/1999/xlink"
 width="33px" height="33px">
<path fill-rule="evenodd"  fill="rgb(248, 82, 82)"
 d="M16.591,32.472 C7.669,32.470 0.409,25.209 0.407,16.287 C0.409,7.363 7.669,0.103 16.591,0.102 C21.983,0.103 27.004,2.783 30.020,7.272 C30.397,7.833 30.753,8.445 31.075,9.089 C31.099,9.122 31.118,9.157 31.136,9.192 C31.263,9.508 31.235,9.819 31.069,10.103 C30.904,10.395 30.610,10.626 30.242,10.753 L29.790,10.908 C29.581,10.980 29.362,11.017 29.144,11.017 C28.680,11.017 28.269,10.848 28.044,10.567 C28.003,10.518 27.968,10.472 27.942,10.419 C27.919,10.370 27.895,10.313 27.872,10.250 C27.573,9.696 27.237,9.167 26.880,8.684 C24.436,5.383 20.686,3.486 16.591,3.478 C9.542,3.492 3.796,9.238 3.784,16.287 C3.796,23.336 9.542,29.083 16.591,29.096 C23.042,29.084 28.495,24.266 29.295,17.877 L8.542,17.877 C7.741,17.877 7.089,17.226 7.089,16.424 L7.089,15.955 C7.089,15.154 7.741,14.502 8.542,14.502 L31.741,14.502 C32.282,14.502 32.739,14.942 32.759,15.484 C32.759,15.484 32.774,15.933 32.774,16.287 C32.774,16.811 32.769,16.898 32.769,16.898 L32.758,16.957 C32.745,17.252 32.727,17.544 32.699,17.835 C31.907,26.180 24.981,32.471 16.591,32.472 L16.591,32.472 Z"/>
</svg>